<svg width="77" height="42" viewBox="0 0 77 42" fill="none" xmlns="http://www.w3.org/2000/svg">
<path fill-rule="evenodd" clip-rule="evenodd" d="M0 19.2278C0 19.3641 0.110343 19.4745 0.246457 19.4745H3.45951C3.59562 19.4745 3.70597 19.3641 3.70597 19.2278V12.1716C3.70597 11.4595 3.93656 10.8716 4.39775 10.4079C4.8754 9.92766 5.46012 9.68753 6.15191 9.68753C6.84369 9.68753 7.42017 9.92766 7.88136 10.4079C8.35902 10.8716 8.59784 11.4595 8.59784 12.1716V19.2278C8.59784 19.3641 8.70819 19.4745 8.8443 19.4745H12.0326C12.1688 19.4745 12.2791 19.3641 12.2791 19.2278V11.178C12.2791 9.77034 11.8014 8.59456 10.8461 7.65063C9.87434 6.70669 8.69667 6.23472 7.31311 6.23472C5.81425 6.23472 4.61187 6.78122 3.70597 7.8742V0.246896C3.70597 0.0848284 3.55259 -0.0332356 3.39615 0.00842729L0.183101 0.86419C0.0751408 0.892944 0 0.990808 0 1.10266V19.2278ZM13.6024 13.0161C13.6024 14.9371 14.253 16.5518 15.5543 17.86C16.8555 19.1517 18.4943 19.7975 20.4708 19.7975C22.4144 19.7975 24.045 19.1517 25.3627 17.86C26.6804 16.5352 27.3393 14.9206 27.3393 13.0161C27.3393 11.0952 26.6804 9.48882 25.3627 8.19713C24.0615 6.88886 22.4308 6.23472 20.4708 6.23472C18.4943 6.23472 16.8555 6.88886 15.5543 8.19713C14.253 9.48882 13.6024 11.0952 13.6024 13.0161ZM22.5955 15.2269C22.0355 15.8231 21.3274 16.1212 20.4708 16.1212C19.6143 16.1212 18.8979 15.8231 18.3213 15.2269C17.7449 14.6142 17.4566 13.8773 17.4566 13.0161C17.4566 12.155 17.7449 11.4181 18.3213 10.8053C18.8979 10.2092 19.6143 9.9111 20.4708 9.9111C21.3274 9.9111 22.0355 10.2175 22.5955 10.8302C23.1885 11.4264 23.485 12.155 23.485 13.0161C23.485 13.8773 23.1885 14.6142 22.5955 15.2269ZM32.3528 19.2278C32.3528 19.3641 32.2425 19.4745 32.1064 19.4745H28.8933C28.7573 19.4745 28.6469 19.3641 28.6469 19.2278V6.80443C28.6469 6.66813 28.7573 6.55767 28.8933 6.55767H32.1064C32.2425 6.55767 32.3528 6.66813 32.3528 6.80443V7.72516C33.2094 6.73154 34.3211 6.23472 35.6883 6.23472C37.3683 6.23472 38.6695 6.89715 39.5919 8.22197C40.4319 6.89715 41.7166 6.23472 43.4461 6.23472C44.8297 6.23472 46.0073 6.69842 46.9791 7.62579C47.9344 8.53661 48.412 9.67097 48.412 11.0289V19.2278C48.412 19.3641 48.3018 19.4745 48.1656 19.4745H44.9525C44.8164 19.4745 44.7061 19.3641 44.7061 19.2278V12.0225C44.7061 11.3601 44.5002 10.8054 44.0884 10.3582C43.6767 9.9111 43.1661 9.68753 42.5566 9.68753C41.9472 9.68753 41.4284 9.9111 41.0002 10.3582C40.5883 10.8054 40.3825 11.3601 40.3825 12.0225V19.2278C40.3825 19.3641 40.2721 19.4745 40.1361 19.4745H36.923C36.7868 19.4745 36.6766 19.3641 36.6766 19.2278V12.0225C36.6766 11.3601 36.4706 10.8054 36.0589 10.3582C35.647 9.9111 35.1364 9.68753 34.527 9.68753C33.9176 9.68753 33.3987 9.9111 32.9705 10.3582C32.5587 10.8054 32.3528 11.3601 32.3528 12.0225V19.2278ZM53.6324 14.3575H63.1938C63.2927 13.927 63.3421 13.4798 63.3421 13.0161C63.3421 11.0952 62.6915 9.48882 61.3902 8.19713C60.0891 6.88886 58.4749 6.23472 56.5479 6.23472C54.6043 6.23472 52.9818 6.88886 51.6807 8.19713C50.3794 9.48882 49.7288 11.0952 49.7288 13.0161C49.7288 14.9536 50.3958 16.5684 51.7301 17.86C53.0641 19.1517 54.736 19.7975 56.7455 19.7975C58.0961 19.7975 59.3066 19.4911 60.3773 18.8785C61.372 18.3027 62.1353 17.6508 62.7122 16.7069C62.7952 16.5709 62.7204 16.3962 62.5668 16.3548L59.4663 15.5163C59.3739 15.4912 59.276 15.5228 59.2111 15.5932C58.5821 16.2763 57.7685 16.618 56.7702 16.618C56.0126 16.618 55.3537 16.411 54.7937 15.997C54.2337 15.583 53.8466 15.0365 53.6324 14.3575ZM59.5619 11.6002H53.6571C53.8713 10.9378 54.2419 10.4079 54.769 10.0105C55.296 9.61302 55.889 9.41429 56.5479 9.41429C57.2396 9.41429 57.8572 9.61302 58.4008 10.0105C58.9443 10.4079 59.3315 10.9378 59.5619 11.6002ZM8.62602 20.9007C8.62602 20.7644 8.73635 20.654 8.87248 20.654H12.0765C12.2127 20.654 12.323 20.7644 12.323 20.9007V23.1507H14.9848C15.121 23.1507 15.2312 23.2611 15.2312 23.3975V26.1176C15.2312 26.2539 15.121 26.3643 14.9848 26.3643H12.323V31.1848C12.323 31.5803 12.4544 31.91 12.7174 32.1737C12.9803 32.4209 13.3171 32.5445 13.7279 32.5445H14.9848C15.121 32.5445 15.2312 32.6549 15.2312 32.7913V35.7586C15.2312 35.8949 15.121 36.0053 14.9848 36.0053H13.1117C11.8465 36.0053 10.7785 35.6181 9.90764 34.8435C9.05322 34.0524 8.62602 33.0719 8.62602 31.9018V20.9007ZM16.0365 29.5781C16.0365 31.4897 16.6855 33.0966 17.9836 34.3986C19.2816 35.684 20.9165 36.3267 22.8882 36.3267C24.8271 36.3267 26.4539 35.684 27.7683 34.3986C29.0828 33.08 29.7401 31.4733 29.7401 29.5781C29.7401 27.6663 29.0828 26.0677 27.7683 24.7823C26.4703 23.4804 24.8437 22.8294 22.8882 22.8294C20.9165 22.8294 19.2816 23.4804 17.9836 24.7823C16.6855 26.0677 16.0365 27.6663 16.0365 29.5781ZM25.0079 31.7782C24.4492 32.3715 23.7427 32.6681 22.8882 32.6681C22.0339 32.6681 21.3191 32.3715 20.744 31.7782C20.1689 31.1684 19.8814 30.435 19.8814 29.5781C19.8814 28.7211 20.1689 27.9876 20.744 27.378C21.3191 26.7846 22.0339 26.4879 22.8882 26.4879C23.7427 26.4879 24.4492 26.7928 25.0079 27.4027C25.5994 27.9959 25.8952 28.7211 25.8952 29.5781C25.8952 30.435 25.5994 31.1684 25.0079 31.7782ZM35.0709 29.5858C35.0709 27.6519 35.6475 26.0541 36.8009 24.7922C37.9542 23.514 39.404 22.8748 41.1505 22.8748C42.4685 22.8748 43.6548 23.2681 44.7092 24.0548V23.4411C44.7092 23.3048 44.8196 23.1944 44.9556 23.1944H48.1452C48.2812 23.1944 48.3916 23.3048 48.3916 23.4411V35.7069C48.3916 37.4605 47.7655 38.9108 46.5134 40.0581C45.2776 41.2379 43.7372 41.8279 41.8919 41.8279C40.4091 41.8279 39.0827 41.451 37.9129 40.6972C36.8137 39.9834 36.0611 39.1149 35.6552 38.0916C35.6027 37.9596 35.6809 37.8144 35.8179 37.7774L38.998 36.9187C39.111 36.8882 39.2286 36.9421 39.29 37.0419C39.5004 37.3843 39.8284 37.7342 40.236 37.9439C40.7138 38.2061 41.2411 38.3372 41.8177 38.3372C42.625 38.3372 43.3088 38.0913 43.8689 37.5998C44.4292 37.1081 44.7092 36.4935 44.7092 35.7561V35.0924C43.6878 35.8953 42.5014 36.2969 41.1505 36.2969C39.404 36.2969 37.9542 35.6578 36.8009 34.3795C35.6475 33.0848 35.0709 31.4869 35.0709 29.5858ZM41.793 26.5129C40.9857 26.5129 40.3019 26.8079 39.7418 27.3979C39.198 27.9879 38.9262 28.7254 38.9262 29.6104C38.9262 30.4626 39.198 31.1836 39.7418 31.7736C40.3019 32.3636 40.9857 32.6586 41.793 32.6586C42.5839 32.6586 43.2594 32.3636 43.8195 31.7736C44.3797 31.2001 44.6598 30.4789 44.6598 29.6104C44.6598 28.7254 44.3797 27.9879 43.8195 27.3979C43.2594 26.8079 42.5839 26.5129 41.793 26.5129ZM49.7244 29.5858C49.7244 31.4869 50.3751 33.0848 51.6768 34.3795C52.9784 35.6578 54.6177 36.2969 56.5949 36.2969C58.5389 36.2969 60.1701 35.6578 61.4881 34.3795C62.8062 33.0684 63.4652 31.4705 63.4652 29.5858C63.4652 27.6848 62.8062 26.0951 61.4881 24.8168C60.1865 23.5221 58.5555 22.8748 56.5949 22.8748C54.6177 22.8748 52.9784 23.5221 51.6768 24.8168C50.3751 26.0951 49.7244 27.6848 49.7244 29.5858ZM58.7202 31.7736C58.16 32.3636 57.4516 32.6586 56.5949 32.6586C55.738 32.6586 55.0213 32.3636 54.4448 31.7736C53.8681 31.1674 53.5798 30.4381 53.5798 29.5858C53.5798 28.7337 53.8681 28.0044 54.4448 27.3979C55.0213 26.8079 55.738 26.5129 56.5949 26.5129C57.4516 26.5129 58.16 26.8162 58.7202 27.4225C59.3133 28.0125 59.6098 28.7337 59.6098 29.5858C59.6098 30.4381 59.3133 31.1674 58.7202 31.7736ZM67.0198 32.5515C65.999 32.5515 65.1714 33.3801 65.1714 34.4021C65.1714 35.4244 65.999 36.2528 67.0198 36.2528H75.153C76.1738 36.2528 77.0014 35.4244 77.0014 34.4021C77.0014 33.3801 76.1738 32.5515 75.153 32.5515H67.0198Z" fill="black"/>
</svg>
